<svg width="360" height="562" viewBox="0 0 360 562" fill="none" xmlns="http://www.w3.org/2000/svg">
<path d="M181.626 561.179V441.327H122.363C118.117 491.568 160.103 542.162 181.626 561.179Z" fill="#FDF279"/>
<path d="M181.327 561.179V441.327H240.589C244.835 491.568 202.85 542.162 181.327 561.179Z" fill="#F3C142"/>
<rect x="91.99" y="369.681" width="176.02" height="71.6462" rx="10" fill="#030F33"/>
<path d="M343.435 433.366C391.596 315.243 323.369 218.448 283.235 184.816C243.92 238.955 178.805 348.219 232.863 352.157C286.921 356.094 329.102 407.937 343.435 433.366Z" fill="#EA3A45"/>
<path d="M16.5645 433.366C-31.596 315.243 36.6314 218.448 76.7651 184.816C116.08 238.955 181.195 348.219 127.137 352.157C73.0794 356.094 30.898 407.937 16.5645 433.366Z" fill="#EC6761"/>
<path fill-rule="evenodd" clip-rule="evenodd" d="M181.327 369.681H101.99C96.4671 369.681 91.99 374.158 91.99 379.681V431.327C91.99 436.85 96.4671 441.327 101.99 441.327H181.327V369.681Z" fill="#233A68"/>
<path d="M269.336 378.526H180.442V101.671H253.857C322.142 202.86 292.629 328.403 269.336 378.526Z" fill="#D3EAFA"/>
<path d="M92.2525 378.526H181.147V101.671H107.732C39.4466 202.86 68.9601 328.403 92.2525 378.526Z" fill="#E4F0F9"/>
<path d="M256.953 101.98H181.327V9.98937C192.648 4.68225 236.462 69.1049 256.953 101.98Z" fill="#EA3A45"/>
<path d="M106.142 101.98H181.769V9.98937C170.447 4.68225 126.634 69.1049 106.142 101.98Z" fill="#EC6761"/>
<path fill-rule="evenodd" clip-rule="evenodd" d="M182.211 182.191C181.624 182.172 181.034 182.162 180.442 182.162C150.643 182.162 126.486 206.319 126.486 236.118C126.486 265.917 150.643 290.074 180.442 290.074C181.034 290.074 181.624 290.064 182.211 290.045V182.191Z" fill="#233A68"/>
<path fill-rule="evenodd" clip-rule="evenodd" d="M182.211 182.191C182.798 182.172 183.388 182.162 183.98 182.162C213.779 182.162 237.936 206.319 237.936 236.118C237.936 265.917 213.779 290.074 183.98 290.074C183.388 290.074 182.798 290.064 182.211 290.045V182.191Z" fill="#030F33"/>
<path fill-rule="evenodd" clip-rule="evenodd" d="M189.835 4.47058C185.879 -1.49019 177.126 -1.49019 173.171 4.47058L155.675 30.8338H207.33L189.835 4.47058Z" fill="#233A68"/>
<circle cx="181.769" cy="235.676" r="32.285" fill="#72CCEA"/>
</svg>
